<svg width="128" height="128" viewBox="0 0 128 128" fill="none" xmlns="http://www.w3.org/2000/svg">
<mask id="mask0_1_2" style="mask-type:alpha" maskUnits="userSpaceOnUse" x="19" y="23" width="89" height="81">
<rect x="20.6169" y="40.5434" width="85.8242" height="16.989" rx="2" transform="rotate(-1.41187 20.6169 40.5434)" stroke="black" stroke-width="2"/>
<mask id="mask1_1_2" style="mask-type:alpha" maskUnits="userSpaceOnUse" x="19" y="37" width="89" height="22">
<rect x="20.6169" y="40.5434" width="85.8242" height="16.989" rx="2" transform="rotate(-1.41187 20.6169 40.5434)" fill="#D9D9D9" stroke="black" stroke-width="2"/>
</mask>
<g mask="url(#mask1_1_2)">
<line y1="-0.75" x2="29.0728" y2="-0.75" transform="matrix(-0.263445 0.974126 -0.99526 -0.0617255 21.6375 31.4435)" stroke="black" stroke-width="1.5"/>
<line y1="-0.75" x2="29.0728" y2="-0.75" transform="matrix(-0.263445 0.974126 -0.99526 -0.0617255 28.6531 31.8498)" stroke="black" stroke-width="1.5"/>
<line y1="-0.75" x2="29.0728" y2="-0.75" transform="matrix(-0.263445 0.974126 -0.99526 -0.0617255 35.6686 32.256)" stroke="black" stroke-width="1.5"/>
<line y1="-0.75" x2="29.0728" y2="-0.75" transform="matrix(-0.263445 0.974126 -0.99526 -0.0617255 42.6842 32.6623)" stroke="black" stroke-width="1.5"/>
<line y1="-0.75" x2="29.0728" y2="-0.75" transform="matrix(-0.263445 0.974126 -0.99526 -0.0617255 49.6997 33.0685)" stroke="black" stroke-width="1.5"/>
<line y1="-0.75" x2="29.0728" y2="-0.75" transform="matrix(-0.263445 0.974126 -0.99526 -0.0617255 56.7153 33.4747)" stroke="black" stroke-width="1.5"/>
<line y1="-0.75" x2="29.0728" y2="-0.75" transform="matrix(-0.263445 0.974126 -0.99526 -0.0617255 63.7308 33.881)" stroke="black" stroke-width="1.5"/>
<line y1="-0.75" x2="29.0728" y2="-0.75" transform="matrix(-0.263445 0.974126 -0.99526 -0.0617255 70.7464 34.2872)" stroke="black" stroke-width="1.5"/>
<line y1="-0.75" x2="29.0728" y2="-0.75" transform="matrix(-0.263445 0.974126 -0.99526 -0.0617255 77.7619 34.6934)" stroke="black" stroke-width="1.5"/>
<line y1="-0.75" x2="29.0728" y2="-0.75" transform="matrix(-0.263445 0.974126 -0.99526 -0.0617255 84.7775 35.0997)" stroke="black" stroke-width="1.5"/>
<line y1="-0.75" x2="29.0728" y2="-0.75" transform="matrix(-0.263445 0.974126 -0.99526 -0.0617255 91.793 35.5059)" stroke="black" stroke-width="1.5"/>
<line y1="-0.75" x2="29.0728" y2="-0.75" transform="matrix(-0.263445 0.974126 -0.99526 -0.0617255 98.8086 35.9121)" stroke="black" stroke-width="1.5"/>
<line y1="-0.75" x2="29.0728" y2="-0.75" transform="matrix(-0.263445 0.974126 -0.99526 -0.0617255 105.824 36.3184)" stroke="black" stroke-width="1.5"/>
<line y1="-0.75" x2="29.0728" y2="-0.75" transform="matrix(-0.263445 0.974126 -0.99526 -0.0617255 112.84 36.7246)" stroke="black" stroke-width="1.5"/>
</g>
<rect x="21.3674" y="66.7207" width="85.8242" height="16.989" rx="2" transform="rotate(3.26897 21.3674 66.7207)" stroke="black" stroke-width="2"/>
<mask id="mask2_1_2" style="mask-type:alpha" maskUnits="userSpaceOnUse" x="19" y="65" width="89" height="25">
<rect x="21.3674" y="66.7207" width="85.8242" height="16.989" rx="2" transform="rotate(3.26897 21.3674 66.7207)" fill="#D9D9D9" stroke="black" stroke-width="2"/>
</mask>
<g mask="url(#mask2_1_2)">
<line y1="-0.75" x2="29.0728" y2="-0.75" transform="matrix(-0.34206 0.949379 -0.986904 -0.142738 23.1272 57.7344)" stroke="black" stroke-width="1.5"/>
<line y1="-0.75" x2="29.0728" y2="-0.75" transform="matrix(-0.34206 0.949379 -0.986904 -0.142738 30.0862 58.7118)" stroke="black" stroke-width="1.5"/>
<line y1="-0.75" x2="29.0728" y2="-0.75" transform="matrix(-0.34206 0.949379 -0.986904 -0.142738 37.0452 59.6892)" stroke="black" stroke-width="1.5"/>
<line y1="-0.75" x2="29.0728" y2="-0.75" transform="matrix(-0.34206 0.949379 -0.986904 -0.142738 44.0042 60.6666)" stroke="black" stroke-width="1.5"/>
<line y1="-0.75" x2="29.0728" y2="-0.75" transform="matrix(-0.34206 0.949379 -0.986904 -0.142738 50.9632 61.644)" stroke="black" stroke-width="1.5"/>
<line y1="-0.75" x2="29.0728" y2="-0.75" transform="matrix(-0.34206 0.949379 -0.986904 -0.142738 57.9222 62.6214)" stroke="black" stroke-width="1.5"/>
<line y1="-0.75" x2="29.0728" y2="-0.75" transform="matrix(-0.34206 0.949379 -0.986904 -0.142738 64.8812 63.5988)" stroke="black" stroke-width="1.5"/>
<line y1="-0.75" x2="29.0728" y2="-0.75" transform="matrix(-0.34206 0.949379 -0.986904 -0.142738 71.8402 64.5761)" stroke="black" stroke-width="1.5"/>
<line y1="-0.75" x2="29.0728" y2="-0.75" transform="matrix(-0.34206 0.949379 -0.986904 -0.142738 78.7992 65.5535)" stroke="black" stroke-width="1.5"/>
<line y1="-0.75" x2="29.0728" y2="-0.75" transform="matrix(-0.34206 0.949379 -0.986904 -0.142738 85.7582 66.5309)" stroke="black" stroke-width="1.5"/>
<line y1="-0.75" x2="29.0728" y2="-0.75" transform="matrix(-0.34206 0.949379 -0.986904 -0.142738 92.7172 67.5083)" stroke="black" stroke-width="1.5"/>
<line y1="-0.75" x2="29.0728" y2="-0.75" transform="matrix(-0.34206 0.949379 -0.986904 -0.142738 99.6762 68.4857)" stroke="black" stroke-width="1.5"/>
<line y1="-0.75" x2="29.0728" y2="-0.75" transform="matrix(-0.34206 0.949379 -0.986904 -0.142738 106.635 69.4631)" stroke="black" stroke-width="1.5"/>
<line y1="-0.75" x2="29.0728" y2="-0.75" transform="matrix(-0.34206 0.949379 -0.986904 -0.142738 113.594 70.4405)" stroke="black" stroke-width="1.5"/>
</g>
<mask id="path-33-inside-1_1_2" fill="white">
<path d="M34.0549 25.0549C34.0549 23.9504 34.9504 23.0549 36.0549 23.0549H40.3626C41.4672 23.0549 42.3626 23.9504 42.3626 25.0549V40.8571H34.0549V25.0549Z"/>
</mask>
<path d="M32.5549 25.0549C32.5549 23.1219 34.122 21.5549 36.0549 21.5549H40.3626C42.2956 21.5549 43.8626 23.1219 43.8626 25.0549H40.8626C40.8626 24.7788 40.6388 24.5549 40.3626 24.5549H36.0549C35.7788 24.5549 35.5549 24.7788 35.5549 25.0549H32.5549ZM42.3626 40.8571H34.0549H42.3626ZM32.5549 40.8571V25.0549C32.5549 23.1219 34.122 21.5549 36.0549 21.5549V24.5549C35.7788 24.5549 35.5549 24.7788 35.5549 25.0549V40.8571H32.5549ZM40.3626 21.5549C42.2956 21.5549 43.8626 23.1219 43.8626 25.0549V40.8571H40.8626V25.0549C40.8626 24.7788 40.6388 24.5549 40.3626 24.5549V21.5549Z" fill="black" mask="url(#path-33-inside-1_1_2)"/>
<mask id="path-35-inside-2_1_2" fill="white">
<path d="M34.0549 56.2857H42.3626V68.1538H34.0549V56.2857Z"/>
</mask>
<path d="M42.3626 56.2857H40.8626V68.1538H42.3626H43.8626V56.2857H42.3626ZM34.0549 68.1538H35.5549V56.2857H34.0549H32.5549V68.1538H34.0549Z" fill="black" mask="url(#path-35-inside-2_1_2)"/>
<mask id="path-37-inside-3_1_2" fill="white">
<path d="M34.0549 84.7692H42.3626V102.571H34.0549V84.7692Z"/>
</mask>
<path d="M42.3626 102.571V104.071H43.8626V102.571H42.3626ZM34.0549 102.571H32.5549V104.071H34.0549V102.571ZM42.3626 84.7692H40.8626V102.571H42.3626H43.8626V84.7692H42.3626ZM42.3626 102.571V101.071H34.0549V102.571V104.071H42.3626V102.571ZM34.0549 102.571H35.5549V84.7692H34.0549H32.5549V102.571H34.0549Z" fill="black" mask="url(#path-37-inside-3_1_2)"/>
<mask id="path-39-inside-4_1_2" fill="white">
<path d="M86.2747 55.0989H94.5824V70.5275H86.2747V55.0989Z"/>
</mask>
<path d="M94.5824 55.0989H93.0824V70.5275H94.5824H96.0824V55.0989H94.5824ZM86.2747 70.5275H87.7747V55.0989H86.2747H84.7747V70.5275H86.2747Z" fill="black" mask="url(#path-39-inside-4_1_2)"/>
<mask id="path-41-inside-5_1_2" fill="white">
<path d="M86.2747 87.1429H94.5824V103.758H86.2747V87.1429Z"/>
</mask>
<path d="M94.5824 103.758V105.258H96.0824V103.758H94.5824ZM86.2747 103.758H84.7747V105.258H86.2747V103.758ZM94.5824 87.1429H93.0824V103.758H94.5824H96.0824V87.1429H94.5824ZM94.5824 103.758V102.258H86.2747V103.758V105.258H94.5824V103.758ZM86.2747 103.758H87.7747V87.1429H86.2747H84.7747V103.758H86.2747Z" fill="black" mask="url(#path-41-inside-5_1_2)"/>
<mask id="path-43-inside-6_1_2" fill="white">
<path d="M86.2747 25.0549C86.2747 23.9504 87.1702 23.0549 88.2747 23.0549H92.5824C93.687 23.0549 94.5824 23.9504 94.5824 25.0549V39.6703H86.2747V25.0549Z"/>
</mask>
<path d="M84.7747 25.0549C84.7747 23.1219 86.3417 21.5549 88.2747 21.5549H92.5824C94.5154 21.5549 96.0824 23.1219 96.0824 25.0549H93.0824C93.0824 24.7788 92.8586 24.5549 92.5824 24.5549H88.2747C87.9986 24.5549 87.7747 24.7788 87.7747 25.0549H84.7747ZM94.5824 39.6703H86.2747H94.5824ZM84.7747 39.6703V25.0549C84.7747 23.1219 86.3417 21.5549 88.2747 21.5549V24.5549C87.9986 24.5549 87.7747 24.7788 87.7747 25.0549V39.6703H84.7747ZM92.5824 21.5549C94.5154 21.5549 96.0824 23.1219 96.0824 25.0549V39.6703H93.0824V25.0549C93.0824 24.7788 92.8586 24.5549 92.5824 24.5549V21.5549Z" fill="black" mask="url(#path-43-inside-6_1_2)"/>
</mask>
<g mask="url(#mask0_1_2)">
<rect x="-3" y="5" width="131" height="108" fill="url(#paint0_linear_1_2)"/>
</g>
<defs>
<linearGradient id="paint0_linear_1_2" x1="-3" y1="50.0989" x2="133.35" y2="63.2433" gradientUnits="userSpaceOnUse">
<stop stop-color="#FF6A00"/>
<stop offset="1" stop-color="#FFCC00"/>
</linearGradient>
</defs>
</svg>
