<svg width="127" height="128" viewBox="0 0 127 128" fill="none" xmlns="http://www.w3.org/2000/svg">
<g clip-path="url(#clip0_11_83)">
<circle cx="64" cy="64" r="80" fill="url(#paint0_radial_11_83)"/>
<path d="M61.6562 66.1562C62.2031 66.7812 62.2031 67.7969 61.6562 68.4219L59 71L61.6562 73.6562C62.2031 74.2812 62.2031 75.2969 61.6562 75.9219C61.3438 76.2344 60.9531 76.3125 60.5625 76.3125C60.0938 76.3125 59.7031 76.2344 59.3906 75.9219L55.6406 72.1719C55.0938 71.5469 55.0938 70.5312 55.6406 69.9062L59.3906 66.1562C60.0156 65.5312 61.0312 65.5312 61.6562 66.1562ZM77.5156 53.3438C78.4531 54.2812 79 55.5312 79 56.8594V81C79 83.8125 76.7344 86 74 86H54C51.1875 86 49 83.8125 49 81V51C49 48.2656 51.1875 46 54 46H68.1406C69.4688 46 70.7188 46.5469 71.6562 47.4844L77.5156 53.3438ZM75.25 81H75.1719V58.5H69C67.5938 58.5 66.5 57.4062 66.5 56V49.8281H54C53.2969 49.8281 52.75 50.375 52.75 51.0781V81C52.75 81.7031 53.2969 82.25 54 82.25H74C74.625 82.25 75.25 81.7031 75.25 81ZM66.2656 66.1562C66.8906 65.5312 67.9062 65.5312 68.5312 66.1562L72.2812 69.9062C72.8281 70.5312 72.8281 71.5469 72.2812 72.1719L68.5312 75.9219C68.2188 76.2344 67.8281 76.3125 67.4375 76.3125C66.9688 76.3125 66.5781 76.2344 66.2656 75.9219C65.7188 75.2969 65.7188 74.2812 66.2656 73.6562L68.9219 71L66.2656 68.4219C65.7188 67.7969 65.7188 66.7812 66.2656 66.1562Z" fill="#7E85FF"/>
<g opacity="0.4">
<path d="M68.2823 41.1329C68.2823 41.1329 72.8308 40.1653 76.4712 39.3909C80.1116 38.6166 81.2519 39.3242 82.0262 42.9645C82.8006 46.6049 83.7309 51.1604 83.7309 51.1604" stroke="white" stroke-width="3" stroke-linecap="round"/>
<path d="M88.4246 72.2788C88.4246 72.2788 89.3922 76.8273 90.1666 80.4677C90.9409 84.108 90.2333 85.2483 86.593 86.0227C82.9526 86.7971 78.3971 87.7274 78.3971 87.7274" stroke="white" stroke-width="3" stroke-linecap="round"/>
<path d="M56.5736 92.2993C56.5736 92.2993 52.0251 93.2668 48.3847 94.0412C44.7443 94.8156 43.604 94.108 42.8297 90.4676C42.0553 86.8273 41.125 82.2717 41.125 82.2717" stroke="white" stroke-width="3" stroke-linecap="round"/>
<path d="M36.4312 61.1533C36.4312 61.1533 35.4637 56.6049 34.6893 52.9645C33.915 49.3241 34.6225 48.1838 38.2629 47.4094C41.9033 46.6351 46.4588 45.7047 46.4588 45.7047" stroke="white" stroke-width="3" stroke-linecap="round"/>
<circle cx="40.7442" cy="52.8372" r="1.86047" fill="#FF0000"/>
</g>
<g opacity="0.6">
<path d="M83.5353 32.9422C83.5353 32.9422 90.3641 33.5993 95.8296 34.1252C101.295 34.651 102.585 36.1526 102.059 41.618C101.534 47.0834 100.821 53.9056 100.821 53.9056" stroke="white" stroke-width="3" stroke-linecap="round"/>
<path d="M98.0538 85.7009C98.0538 85.7009 97.3968 92.5297 96.8709 97.9951C96.345 103.461 94.8435 104.751 89.3781 104.225C83.9127 103.699 77.0904 102.987 77.0904 102.987" stroke="white" stroke-width="3" stroke-linecap="round"/>
<path d="M44.3571 99.7351C44.3571 99.7351 37.5283 99.078 32.0629 98.5521C26.5974 98.0263 25.3071 96.5247 25.8329 91.0593C26.3588 85.5939 27.0714 78.7717 27.0714 78.7717" stroke="white" stroke-width="3" stroke-linecap="round"/>
<path d="M29.8386 46.9764C29.8386 46.9764 30.4957 40.1476 31.0215 34.6821C31.5474 29.2167 33.049 27.9264 38.5144 28.4522C43.9798 28.9781 50.802 29.6906 50.802 29.6906" stroke="white" stroke-width="3" stroke-linecap="round"/>
<circle cx="37.9535" cy="34.2326" r="2.7907" fill="#FF0000"/>
<path d="M44.5124 36.1682L45.3677 37.6721C45.4671 37.8475 45.396 38.0757 45.2194 38.1867C45.1446 38.226 45.0722 38.242 45.0023 38.2346C44.8857 38.2224 44.7753 38.1519 44.7047 38.0384L43.6727 36.1978L42.5888 36.0839L42.4321 37.5756C42.41 37.7854 42.218 37.9302 42.0199 37.9094C41.8101 37.8873 41.6641 37.707 41.6862 37.4972L42.1565 33.0219C42.1774 32.8238 42.3589 32.6661 42.5687 32.6881L44.2469 32.8645C45.1676 32.9613 45.8456 33.7985 45.7488 34.7192C45.6741 35.4301 45.1675 35.9896 44.5124 36.1682ZM42.862 33.4849L42.6672 35.338L43.9726 35.4752C44.4854 35.5291 44.9478 35.1652 45.0017 34.6524C45.0568 34.128 44.6801 33.676 44.1673 33.6221L42.862 33.4849ZM49.1451 38.2812C49.123 38.491 48.9311 38.6358 48.7329 38.615L45.7494 38.3014C45.5396 38.2793 45.3936 38.099 45.4156 37.8892L45.886 33.4139C45.9068 33.2157 46.0871 33.0697 46.2969 33.0918L49.2805 33.4054C49.4786 33.4262 49.6363 33.6077 49.6142 33.8175C49.5934 34.0156 49.4002 34.1721 49.2021 34.1513L46.5915 33.8769L46.4347 35.3687L48.2994 35.5646C48.4975 35.5855 48.6552 35.767 48.6344 35.9651C48.6123 36.1749 48.4191 36.3314 48.221 36.3105L46.3563 36.1145L46.1995 37.6063L48.8101 37.8807C49.0095 37.8899 49.1659 38.0831 49.1451 38.2812ZM53.3553 37.6868C53.6117 37.7137 53.6921 37.9578 53.6774 38.0977C53.6492 38.3658 52.7875 39.0529 51.6453 38.9328C50.0487 38.765 49.2375 37.2893 49.3674 36.054C49.4948 34.8419 50.5741 33.5413 52.1941 33.7116C53.3596 33.8341 54.0351 34.6946 54.0081 34.951C53.9934 35.0908 53.8524 35.3117 53.596 35.2847C53.223 35.2455 53.1297 34.5641 52.1157 34.4575C50.9736 34.3374 50.2051 35.2583 50.1133 36.1324C50.0226 36.9948 50.5699 38.0657 51.7237 38.187C52.7506 38.2831 52.9823 37.6476 53.3553 37.6868Z" fill="white"/>
</g>
<path d="M74.3753 14.3259C74.3753 14.3259 83.6007 12.0678 90.9843 10.2605C98.3679 8.4532 100.74 9.82682 102.547 17.2103C104.354 24.5939 106.537 33.8361 106.537 33.8361" stroke="white" stroke-width="3" stroke-linecap="round"/>
<path d="M117.432 76.6567C117.432 76.6567 119.691 85.8821 121.498 93.2657C123.305 100.649 121.931 103.021 114.548 104.828C107.164 106.636 97.9222 108.818 97.9222 108.818" stroke="white" stroke-width="3" stroke-linecap="round"/>
<path d="M53.6544 119.509C53.6544 119.509 44.429 121.767 37.0454 123.574C29.6618 125.382 27.2899 124.008 25.4827 116.624C23.6754 109.241 21.4928 99.9987 21.4928 99.9987" stroke="white" stroke-width="3" stroke-linecap="round"/>
<path d="M10.5973 57.1781C10.5973 57.1781 8.33925 47.9526 6.53197 40.569C4.72469 33.1854 6.09831 30.8136 13.4818 29.0063C20.8654 27.199 30.1075 25.0165 30.1075 25.0165" stroke="white" stroke-width="3" stroke-linecap="round"/>
<circle cx="12.8372" cy="37.0233" r="3.72093" fill="#FF0000"/>
<path d="M20.3855 35.2952L21.7326 36.3808C21.8894 36.5075 21.9069 36.7459 21.7833 36.914C21.7281 36.9779 21.6666 37.0193 21.5988 37.0381C21.4859 37.0695 21.3573 37.0443 21.2501 36.9646L19.6151 35.6306L18.5649 35.922L18.966 37.3674C19.0224 37.5707 18.8969 37.7757 18.7049 37.829C18.5017 37.8854 18.2997 37.7712 18.2433 37.5679L17.0401 33.2318C16.9868 33.0398 17.0979 32.8266 17.3011 32.7702L18.9272 32.319C19.8193 32.0714 20.7569 32.6017 21.0045 33.4938C21.1956 34.1826 20.9294 34.8889 20.3855 35.2952ZM17.8662 33.4039L18.3644 35.1993L19.6291 34.8484C20.1259 34.7105 20.4228 34.2025 20.2849 33.7056C20.1439 33.1975 19.6277 32.9151 19.1309 33.0529L17.8662 33.4039ZM25.4702 35.5625C25.5266 35.7658 25.4011 35.9709 25.2091 36.0241L22.3184 36.8263C22.1151 36.8827 21.9132 36.7685 21.8568 36.5652L20.6535 32.2291C20.6002 32.0371 20.7145 31.8352 20.9177 31.7788L23.8085 30.9766C24.0005 30.9233 24.2137 31.0344 24.2701 31.2377C24.3234 31.4296 24.201 31.646 24.009 31.6993L21.4796 32.4012L21.8807 33.8466L23.6874 33.3452C23.8794 33.2919 24.0926 33.403 24.1459 33.595C24.2023 33.7982 24.0799 34.0146 23.888 34.0679L22.0812 34.5692L22.4823 36.0146L25.0117 35.3127C25.2006 35.2482 25.417 35.3706 25.4702 35.5625ZM29.1693 33.4658C29.4177 33.3969 29.582 33.5945 29.6196 33.73C29.6917 33.9898 29.1419 34.945 28.0353 35.2521C26.4883 35.6813 25.1926 34.6058 24.8604 33.4089C24.5346 32.2345 25.0619 30.6288 26.6315 30.1932C27.7607 29.8799 28.7046 30.4328 28.7736 30.6812C28.8112 30.8167 28.7609 31.0739 28.5125 31.1428C28.1511 31.2431 27.8145 30.6433 26.832 30.9159C25.7254 31.223 25.3481 32.3614 25.5831 33.2083C25.815 34.0439 26.7168 34.8396 27.8348 34.5294C28.8253 34.2423 28.8079 33.5661 29.1693 33.4658Z" fill="white"/>
</g>
<defs>
<radialGradient id="paint0_radial_11_83" cx="0" cy="0" r="1" gradientUnits="userSpaceOnUse" gradientTransform="translate(64 64) rotate(90) scale(80)">
<stop/>
<stop offset="0.759615" stop-opacity="0"/>
</radialGradient>
<clipPath id="clip0_11_83">
<rect width="127" height="128" fill="white"/>
</clipPath>
</defs>
</svg>
